<?xml version="1.0" encoding="utf-8"?>
<!-- Generator: Adobe Illustrator 16.0.0, SVG Export Plug-In . SVG Version: 6.00 Build 0)  -->
<!DOCTYPE svg PUBLIC "-//W3C//DTD SVG 1.1//EN" "http://www.w3.org/Graphics/SVG/1.1/DTD/svg11.dtd">
<svg version="1.1" id="Layer_1" xmlns="http://www.w3.org/2000/svg" xmlns:xlink="http://www.w3.org/1999/xlink" x="0px" y="0px"
	 width="512px" height="512px" viewBox="0 0 512 512" enable-background="new 0 0 512 512" xml:space="preserve">
<g id="icomoon-ignore">
</g>
<path fill="#FFFFFF" d="M192,165h88.553v45.391h1.266C294.139,188.294,324.298,165,369.24,165C462.713,165,480,223.188,480,298.867
	V453h-92.305V316.361c0-32.594-0.668-74.514-48.014-74.514c-48.074,0-55.41,35.492-55.41,72.146V453H192V165z"/>
<path fill="#FFFFFF" d="M32,165h96v288H32V165z"/>
<path fill="#FFFFFF" d="M128,85c0,26.51-21.49,48-48,48s-48-21.49-48-48s21.49-48,48-48S128,58.49,128,85z"/>
</svg>
