<?xml version="1.0" encoding="utf-8"?>
<!-- Generator: Adobe Illustrator 16.0.0, SVG Export Plug-In . SVG Version: 6.00 Build 0)  -->
<!DOCTYPE svg PUBLIC "-//W3C//DTD SVG 1.1//EN" "http://www.w3.org/Graphics/SVG/1.1/DTD/svg11.dtd">
<svg version="1.1" id="Layer_1" xmlns="http://www.w3.org/2000/svg" xmlns:xlink="http://www.w3.org/1999/xlink" x="0px" y="0px"
	 width="12px" height="11px" viewBox="0 0 12 11" enable-background="new 0 0 12 11" xml:space="preserve">
<title>B03705EF-C186-439C-BCDC-22429A7572DC</title>
<g>
	<path fill="#FFFFFF" d="M5.542,0.353h0.569c1.694,0,1.893,0.007,2.562,0.037C9.291,0.418,9.627,0.521,9.85,0.608
		c0.297,0.115,0.508,0.252,0.729,0.474s0.358,0.433,0.474,0.729c0.088,0.223,0.19,0.558,0.219,1.176
		c0.029,0.668,0.037,0.869,0.037,2.56c0,1.691-0.007,1.893-0.037,2.561c-0.028,0.617-0.131,0.953-0.219,1.176
		c-0.102,0.275-0.264,0.523-0.474,0.728c-0.204,0.211-0.454,0.373-0.729,0.474c-0.223,0.088-0.559,0.19-1.177,0.219
		c-0.669,0.029-0.87,0.037-2.562,0.037c-1.693,0-1.894-0.006-2.562-0.037c-0.618-0.028-0.954-0.131-1.178-0.219
		c-0.275-0.102-0.524-0.263-0.729-0.474C1.432,9.807,1.27,9.559,1.168,9.283C1.08,9.061,0.978,8.725,0.95,8.105
		c-0.03-0.668-0.037-0.867-0.037-2.56c0-1.693,0.006-1.892,0.037-2.56c0.028-0.618,0.131-0.954,0.218-1.177
		C1.283,1.513,1.42,1.302,1.642,1.08c0.222-0.222,0.434-0.359,0.73-0.474c0.223-0.087,0.559-0.19,1.177-0.218
		C4.134,0.36,4.36,0.353,5.542,0.353L5.542,0.353z M9.495,1.406c-0.42,0-0.761,0.34-0.761,0.76s0.341,0.76,0.761,0.76l0,0
		c0.421,0,0.761-0.34,0.761-0.761S9.916,1.405,9.495,1.406L9.495,1.406z M6.111,2.294C4.314,2.338,2.893,3.832,2.938,5.629
		c0.043,1.734,1.439,3.13,3.173,3.173c1.797,0,3.254-1.456,3.254-3.254C9.365,3.751,7.908,2.294,6.111,2.294L6.111,2.294z"/>
	<path fill="#FFFFFF" d="M6.11,3.436c1.167,0,2.114,0.945,2.115,2.112c0,1.167-0.945,2.114-2.113,2.114
		c-1.167,0-2.113-0.945-2.113-2.113C3.998,4.382,4.944,3.437,6.11,3.436L6.11,3.436L6.11,3.436z"/>
</g>
</svg>
